<?xml version="1.0" encoding="UTF-8" standalone="no"?>
<svg
   xmlns:dc="http://purl.org/dc/elements/1.1/"
   xmlns:cc="http://creativecommons.org/ns#"
   xmlns:rdf="http://www.w3.org/1999/02/22-rdf-syntax-ns#"
   xmlns:svg="http://www.w3.org/2000/svg"
   xmlns="http://www.w3.org/2000/svg"
   xmlns:xlink="http://www.w3.org/1999/xlink"
   xmlns:sodipodi="http://sodipodi.sourceforge.net/DTD/sodipodi-0.dtd"
   xmlns:inkscape="http://www.inkscape.org/namespaces/inkscape"
   id="svg22774"
   height="64"
   width="64"
   version="1.1"
   sodipodi:docname="vaults_64.svg"
   inkscape:version="0.92.3 (2405546, 2018-03-11)">
  <sodipodi:namedview
     pagecolor="#ffffff"
     bordercolor="#666666"
     borderopacity="1"
     objecttolerance="10"
     gridtolerance="10"
     guidetolerance="10"
     inkscape:pageopacity="0"
     inkscape:pageshadow="2"
     inkscape:window-width="1366"
     inkscape:window-height="705"
     id="namedview43"
     showgrid="false"
     inkscape:zoom="3.6875"
     inkscape:cx="3.9224134"
     inkscape:cy="-21.216171"
     inkscape:window-x="0"
     inkscape:window-y="30"
     inkscape:window-maximized="1"
     inkscape:current-layer="svg22774" />
  <defs
     id="defs22776">
    <linearGradient
       id="linearGradient1096">
      <stop
         id="stop1088"
         style="stop-color:#ffffff;stop-opacity:1"
         offset="0" />
      <stop
         id="stop1090"
         style="stop-color:#ffffff;stop-opacity:0.23529412"
         offset="0" />
      <stop
         id="stop1092"
         style="stop-color:#ffffff;stop-opacity:0.15686275"
         offset="1" />
      <stop
         id="stop1094"
         style="stop-color:#ffffff;stop-opacity:0.39215687"
         offset="1" />
    </linearGradient>
    <linearGradient
       id="linearGradient960">
      <stop
         id="stop956"
         style="stop-color:#fafafa;stop-opacity:1"
         offset="0" />
      <stop
         id="stop958"
         style="stop-color:#d4d4d4;stop-opacity:1"
         offset="1" />
    </linearGradient>
    <linearGradient
       gradientTransform="matrix(1.3210282,0,0,1.2679796,-70.729885,0.17381034)"
       gradientUnits="userSpaceOnUse"
       xlink:href="#linearGradient8272-8-8"
       id="linearGradient5962"
       y2="44.027672"
       x2="97.538795"
       y1="17.21336"
       x1="97.538795" />
    <linearGradient
       id="linearGradient8272-8-8">
      <stop
         offset="0"
         style="stop-color:#ffffff;stop-opacity:1"
         id="stop8274-4" />
      <stop
         offset="0.00000002"
         style="stop-color:#ffffff;stop-opacity:0.23529412"
         id="stop8276-5" />
      <stop
         offset="1"
         style="stop-color:#ffffff;stop-opacity:0.15686275"
         id="stop8278-0" />
      <stop
         offset="1"
         style="stop-color:#ffffff;stop-opacity:0.39215687"
         id="stop8280-5-9" />
    </linearGradient>
    <linearGradient
       gradientTransform="matrix(0.50413225,0,0,0.49333391,73.843637,-1.4532897)"
       gradientUnits="userSpaceOnUse"
       xlink:href="#linearGradient2867-449-88-871-390-598-476-591-434-148-57-177-8-3-3-6-4-8-8-8-5-7-8"
       id="linearGradient5954"
       y2="119.05979"
       x2="-91"
       y1="43.999817"
       x1="-91" />
    <linearGradient
       id="linearGradient4632-0-6-4-4-4">
      <stop
         offset="0"
         style="stop-color:#efdfc4;stop-opacity:1"
         id="stop4634-4-4-7-4" />
      <stop
         offset="1"
         style="stop-color:#e7c591;stop-opacity:1"
         id="stop4636-3-1-5-9" />
    </linearGradient>
    <radialGradient
       gradientTransform="matrix(-0.04016195,0,0,0.0329426,30.204677,40.92132)"
       gradientUnits="userSpaceOnUse"
       xlink:href="#linearGradient5060-820-8"
       id="radialGradient5950"
       fy="486.64789"
       fx="605.71429"
       r="117.14286"
       cy="486.64789"
       cx="605.71429" />
    <linearGradient
       id="linearGradient5060-820-8">
      <stop
         offset="0"
         style="stop-color:#000000;stop-opacity:1"
         id="stop2681-37" />
      <stop
         offset="1"
         style="stop-color:#000000;stop-opacity:0"
         id="stop2683-05" />
    </linearGradient>
    <linearGradient
       gradientTransform="matrix(0.1076923,0,0,0.03294117,-6.9224153,40.92219)"
       gradientUnits="userSpaceOnUse"
       xlink:href="#linearGradient5048-585-1"
       id="linearGradient5946"
       y2="609.50507"
       x2="302.85715"
       y1="366.64789"
       x1="302.85715" />
    <linearGradient
       id="linearGradient5048-585-1">
      <stop
         offset="0"
         style="stop-color:#000000;stop-opacity:0"
         id="stop2667-0" />
      <stop
         offset="0.5"
         style="stop-color:#000000;stop-opacity:1"
         id="stop2669-91" />
      <stop
         offset="1"
         style="stop-color:#000000;stop-opacity:0"
         id="stop2671-6" />
    </linearGradient>
    <radialGradient
       gradientTransform="matrix(0.04016195,0,0,0.0329426,33.796647,40.92132)"
       gradientUnits="userSpaceOnUse"
       xlink:href="#linearGradient5060-820-8"
       id="radialGradient5942"
       fy="486.64789"
       fx="605.71429"
       r="117.14286"
       cy="486.64789"
       cx="605.71429" />
    <linearGradient
       gradientTransform="matrix(1.3135526,0,0,1.2900554,-55.484955,-1.2218597)"
       gradientUnits="userSpaceOnUse"
       xlink:href="#linearGradient960"
       id="linearGradient22772"
       y2="16.997795"
       x2="62.988873"
       y1="14.900026"
       x1="62.988873" />
    <linearGradient
       y2="44.027672"
       x2="97.538795"
       y1="11.692767"
       x1="97.446732"
       gradientTransform="matrix(1.3210282,0,0,1.2679796,-70.729885,0.17381034)"
       gradientUnits="userSpaceOnUse"
       id="linearGradient1086"
       xlink:href="#linearGradient1096" />
    <linearGradient
       x1="42.470848"
       y1="11.952797"
       x2="42.470848"
       y2="35.581654"
       id="linearGradient12489"
       xlink:href="#linearGradient3454-2-5-0-3"
       gradientUnits="userSpaceOnUse"
       gradientTransform="matrix(0.89189031,0,0,1.0986542,-72.393632,-2.1910641)" />
    <linearGradient
       id="linearGradient3454-2-5-0-3">
      <stop
         id="stop3456-4-9-38-1"
         style="stop-color:#ffffff;stop-opacity:1"
         offset="0" />
      <stop
         id="stop3458-39-80-3-5"
         style="stop-color:#ffffff;stop-opacity:0.23529412"
         offset="0.0097359" />
      <stop
         id="stop3460-7-0-2-4"
         style="stop-color:#ffffff;stop-opacity:0.15686275"
         offset="0.99001008" />
      <stop
         id="stop3462-0-9-8-7"
         style="stop-color:#ffffff;stop-opacity:0.39215687"
         offset="1" />
    </linearGradient>
    <linearGradient
       xlink:href="#linearGradient2867-449-88-871-390-598-476-591-434-148-57-177-8-3-3-6-4-8-8-8-5-7-8"
       id="linearGradient997"
       gradientUnits="userSpaceOnUse"
       gradientTransform="matrix(0.50413225,0,0,0.49333391,-72.43853,-17.111786)"
       x1="45.428802"
       y1="52.770573"
       x2="45.428802"
       y2="113.49406" />
    <linearGradient
       id="linearGradient2867-449-88-871-390-598-476-591-434-148-57-177-8-3-3-6-4-8-8-8-5-7-8">
      <stop
         id="stop3750-1-0-7-6-6-1-3-9-3-9-2"
         style="stop-color:#404648;stop-opacity:1"
         offset="0" />
      <stop
         id="stop3754-1-8-5-2-7-6-7-1-9-1-0"
         style="stop-color:#0c1011;stop-opacity:1"
         offset="1" />
    </linearGradient>
    <radialGradient
       cx="605.71429"
       cy="486.64789"
       r="117.14286"
       fx="605.71429"
       fy="486.64789"
       id="radialGradient12475"
       xlink:href="#linearGradient5060-820-8"
       gradientUnits="userSpaceOnUse"
       gradientTransform="matrix(-0.03079083,0,0,0.02470588,-52.146653,25.863367)" />
    <radialGradient
       cx="605.71429"
       cy="486.64789"
       r="117.14286"
       fx="605.71429"
       fy="486.64789"
       id="radialGradient12471"
       xlink:href="#linearGradient5060-820-8"
       gradientUnits="userSpaceOnUse"
       gradientTransform="matrix(0.03079083,0,0,0.02470588,-50.926153,25.863367)" />
    <linearGradient
       x1="302.85715"
       y1="366.64789"
       x2="302.85715"
       y2="609.50507"
       id="linearGradient12467"
       xlink:href="#linearGradient5048-585-1"
       gradientUnits="userSpaceOnUse"
       gradientTransform="matrix(0.07938856,0,0,0.02470588,-80.229693,25.863367)" />
    <linearGradient
       x1="21.37039"
       y1="7.2270284"
       x2="21.37039"
       y2="34.143417"
       id="linearGradient12463"
       xlink:href="#linearGradient4507-0-4-7"
       gradientUnits="userSpaceOnUse"
       gradientTransform="matrix(0.89189031,0,0,1.0580283,-72.415743,-0.72467242)" />
    <linearGradient
       id="linearGradient4507-0-4-7">
      <stop
         id="stop4509-35-6-1"
         style="stop-color:#ffffff;stop-opacity:1"
         offset="0" />
      <stop
         id="stop4511-46-3-8"
         style="stop-color:#ffffff;stop-opacity:0.23529412"
         offset="0" />
      <stop
         id="stop4513-15-5-9"
         style="stop-color:#ffffff;stop-opacity:0.15686275"
         offset="0.99001008" />
      <stop
         id="stop4515-1-1-8"
         style="stop-color:#ffffff;stop-opacity:0.39215687"
         offset="1" />
    </linearGradient>
    <linearGradient
       x1="62.988873"
       y1="13"
       x2="62.988873"
       y2="16"
       id="linearGradient12459"
       xlink:href="#linearGradient4646-7-4-3"
       gradientUnits="userSpaceOnUse"
       gradientTransform="translate(-126.4773,-6.0782721)" />
    <linearGradient
       id="linearGradient4646-7-4-3">
      <stop
         id="stop4648-8-0-3"
         style="stop-color:#f9f9f9;stop-opacity:1"
         offset="0" />
      <stop
         id="stop4650-1-7-3"
         style="stop-color:#d8d8d8;stop-opacity:1"
         offset="1" />
    </linearGradient>
    <linearGradient
       gradientTransform="matrix(0.50413225,0,0,0.49333391,148.96229,2.6653542)"
       gradientUnits="userSpaceOnUse"
       xlink:href="#linearGradient2867-449-88-871-390-598-476-591-434-148-57-177-8-3-3-6-4-8-8-8-5-7-8"
       id="linearGradient5954-3"
       y2="119.05979"
       x2="-91"
       y1="43.999817"
       x1="-91" />
    <linearGradient
       gradientTransform="matrix(1.3210282,0,0,1.2679796,-76.018024,57.58059)"
       gradientUnits="userSpaceOnUse"
       xlink:href="#linearGradient8272-8-8"
       id="linearGradient5962-3"
       y2="44.027672"
       x2="97.538795"
       y1="17.21336"
       x1="97.538795" />
    <linearGradient
       gradientTransform="matrix(0.50413225,0,0,0.49333391,68.555498,55.95349)"
       gradientUnits="userSpaceOnUse"
       xlink:href="#linearGradient2867-449-88-871-390-598-476-591-434-148-57-177-8-3-3-6-4-8-8-8-5-7-8"
       id="linearGradient5954-1"
       y2="119.05979"
       x2="-91"
       y1="43.999817"
       x1="-91" />
  </defs>
  <metadata
     id="metadata22779">
    <rdf:RDF>
      <cc:Work
         rdf:about="">
        <dc:format>image/svg+xml</dc:format>
        <dc:type
           rdf:resource="http://purl.org/dc/dcmitype/StillImage" />
        <dc:title />
      </cc:Work>
    </rdf:RDF>
  </metadata>
  <path
     id="rect878"
     d="M 7.75 10 C 7.3345 10 7 10.3345 7 10.75 L 7 14 L 4.75 14 C 4.3345 14 4 14.3345 4 14.75 L 4 23.25 C 4 23.6655 4.3345 24 4.75 24 L 59.25 24 C 59.6655 24 60 23.6655 60 23.25 L 60 14.75 C 60 14.3345 59.6655 14 59.25 14 L 28 14 L 28 10.75 C 28 10.3345 27.6655 10 27.25 10 L 7.75 10 z "
     style="opacity:1;vector-effect:none;fill:url(#linearGradient22772);fill-opacity:1;stroke:none;stroke-width:1.00000012;stroke-linecap:butt;stroke-linejoin:miter;stroke-miterlimit:4;stroke-dasharray:none;stroke-dashoffset:0;stroke-opacity:1;font-variant-east_asian:normal;marker:none" />
  <path
     id="rect878-6"
     d="m 7.9960938,9.5039061 c -0.8310001,0 -1.5,0.6689999 -1.5,1.4999999 v 2.492188 h -1.5 c -0.831,0 -1.5,0.669 -1.5,1.5 v 8.007812 H 60.503906 v -8.007812 c 0,-0.831 -0.669,-1.5 -1.5,-1.5 h -30.5 v -2.492188 c 0,-0.831 -0.669,-1.4999999 -1.5,-1.4999999 z"
     style="opacity:0.5;vector-effect:none;fill:none;fill-opacity:1;stroke:#7e8087;stroke-width:0.99200022;stroke-linecap:square;stroke-linejoin:miter;stroke-miterlimit:4;stroke-dasharray:none;stroke-dashoffset:0;stroke-opacity:1" />
  <path
     id="rect962"
     d="m 8,10.5 c -0.277,0 -0.5,0.223 -0.5,0.5 v 3.5 H 5 c -0.277,0 -0.5,0.223 -0.5,0.5 v 13 h 55 V 15 c 0,-0.277 -0.223,-0.5 -0.5,-0.5 H 27.5 V 11 c 0,-0.277 -0.223,-0.5 -0.5,-0.5 z"
     style="opacity:1;vector-effect:none;fill:none;fill-opacity:1;stroke:url(#linearGradient1086);stroke-width:0.99999988;stroke-linecap:round;stroke-linejoin:round;stroke-miterlimit:4;stroke-dasharray:none;stroke-dashoffset:0;stroke-opacity:1;marker:none;font-variant-east_asian:normal" />
  <path
     d="m 58.000667,52.99993 c 0,0 0,7.99991 0,7.99991 2.06824,0.0151 5,-1.79238 5,-4.00047 0,-2.2081 -2.308,-3.99944 -5,-3.99944 z"
     id="path3411"
     style="display:inline;overflow:visible;visibility:visible;opacity:0.3;fill:url(#radialGradient5942);fill-opacity:1;fill-rule:nonzero;stroke:none;stroke-width:1;marker:none" />
  <rect
     width="52"
     height="8"
     x="6.000669"
     y="53"
     id="rect4173-14"
     style="display:inline;overflow:visible;visibility:visible;opacity:0.3;fill:url(#linearGradient5946);fill-opacity:1;fill-rule:nonzero;stroke:none;stroke-width:1;marker:none" />
  <path
     d="m 6.0006657,52.99993 c 0,0 0,7.99991 0,7.99991 -2.06825,0.0151 -5,-1.79238 -5,-4.00047 0,-2.2081 2.308,-3.99944 5,-3.99944 z"
     id="path5018-7"
     style="display:inline;overflow:visible;visibility:visible;opacity:0.3;fill:url(#radialGradient5950);fill-opacity:1;fill-rule:nonzero;stroke:none;stroke-width:1;marker:none" />
  <path
     id="rect980"
     d="m 3,20.5 c -0.8310001,0 -1.5404694,0.564096 -1.5,1.261719 l 2,34.476562 C 3.5404694,56.935904 4.1689999,57.5 5,57.5 h 54 c 0.831,0 1.459531,-0.564096 1.5,-1.261719 l 2,-34.476562 C 62.540469,21.064096 61.831,20.5 61,20.5 Z"
     style="opacity:1;vector-effect:none;fill:url(#linearGradient5954);fill-opacity:1;stroke:none;stroke-width:0.99999982;stroke-linecap:butt;stroke-linejoin:miter;stroke-miterlimit:4;stroke-dasharray:none;stroke-dashoffset:0;stroke-opacity:0.49803922;marker:none;font-variant-east_asian:normal" />
  <path
     id="rect1023"
     d="m 3,21.5 c -0.277,0 -0.5134886,0.185576 -0.5,0.416016 l 2,34.167968 C 4.5134886,56.314424 4.723,56.5 5,56.5 h 54 c 0.277,0 0.486511,-0.185576 0.5,-0.416016 l 2,-34.167968 C 61.513489,21.685576 61.277,21.5 61,21.5 Z"
     style="opacity:0.5;vector-effect:none;fill:none;fill-opacity:1;stroke:url(#linearGradient5962);stroke-width:0.99999988;stroke-linecap:round;stroke-linejoin:round;stroke-miterlimit:4;stroke-dasharray:none;stroke-dashoffset:0;stroke-opacity:1;marker:none;font-variant-east_asian:normal" />
  <path
     inkscape:connector-curvature="0"
     id="rect980-5"
     d="m 3,20.5 c -0.831,0 -1.54047,0.564096 -1.5,1.261719 l 2,34.476562 C 3.54047,56.935904 4.169,57.5 5,57.5 h 54.000006 c 0.831,0 1.45953,-0.564096 1.5,-1.261719 l 2,-34.476562 c 0.0405,-0.697623 -0.669,-1.261719 -1.5,-1.261719 z"
     style="opacity:0.7;vector-effect:none;fill:none;fill-opacity:1;stroke:#000000;stroke-width:0.99999982;stroke-linecap:butt;stroke-linejoin:miter;stroke-miterlimit:4;stroke-dasharray:none;stroke-dashoffset:0;stroke-opacity:1;marker:none" />
  <path
     style="opacity:0.6;vector-effect:none;fill:#5f5f5f;fill-opacity:1;stroke:none;stroke-width:0.99999982;stroke-linecap:butt;stroke-linejoin:miter;stroke-miterlimit:4;stroke-dasharray:none;stroke-dashoffset:0;stroke-opacity:0.49803922;marker:none"
     d="m 3,22.003364 0.234375,4 h 3.7656249 v -4 z m 3.9999999,4 v 4 h 3.9999991 v -4 z m 3.9999991,0 h 4 v -4 h -4 z m 4,0 v 4 h 4 v -4 z m 4,0 h 4 v -4 h -4 z m 4,0 v 4 h 4 v -4 z m 4,0 h 4 v -4 h -4 z m 4,0 v 4 h 4 v -4 z m 4,0 h 4 v -4 h -4 z m 4,0 v 4 h 4 v -4 z m 4,0 h 4 v -4 h -4 z m 4,0 v 4 h 4 v -4 z m 4,0 h 4 v -4 h -4 z m 4,0 v 4 h 4 v -4 z m 4,0 h 1.75586 l 0.234375,-4 h -1.990235 z m 0,4 v 4 h 1.28711 l 0.234375,-4 z m 0,4 h -4 v 4 h 4 z m -4,0 v -4 h -4 v 4 z m -4,0 h -4 v 4 h 4 z m -4,0 v -4 h -4 v 4 z m -4,0 h -4 v 4 h 4 z m -4,0 v -4 h -4 v 4 z m -4,0 h -4 v 4 h 4 z m -4,0 v -4 h -4 v 4 z m -4,0 h -4 v 4 h 4 z m -4,0 v -4 h -4 v 4 z m -4,0 h -4 v 4 h 4 z m -4,0 v -4 h -4 v 4 z m -4,0 H 6.9999999 v 4 h 3.9999991 z m -3.9999991,0 v -4 H 3.46875 l 0.234375,4 z"
     id="path1016"
     inkscape:connector-curvature="0" />
  <path
     id="rect3174-8-5-6"
     style="color:#000000;display:inline;overflow:visible;visibility:visible;opacity:0.15;fill:#000000;fill-opacity:1;fill-rule:evenodd;stroke:none;stroke-width:1.19999933;marker:none;enable-background:accumulate"
     d="m 31.888672,27.000004 c -4.127635,0 -7.488282,3.360646 -7.488282,7.488281 v 3.3125 H 24.201172 C 22.999668,37.800785 22,38.798505 22,40 V 50.80078 C 22,52.00229 22.999668,53 24.201172,53 H 39.800781 C 41.002284,53 42,52.00229 42,50.80078 V 40 c 0,-1.201497 -0.997716,-2.199215 -2.199219,-2.199215 h -0.199219 v -3.3125 c 0,-4.127632 -3.360646,-7.488281 -7.488281,-7.488281 z M 32,31.400394 c 1.790097,0 3.201171,1.409122 3.201172,3.199219 v 3.201172 h -6.400391 v -3.201172 c 0,-1.790097 1.409121,-3.199219 3.199219,-3.199219 z"
     inkscape:connector-curvature="0" />
  <path
     style="color:#000000;display:inline;overflow:visible;visibility:visible;opacity:0.3;fill:#000000;fill-opacity:1;fill-rule:evenodd;stroke:none;stroke-width:1.19999933;marker:none;enable-background:accumulate"
     d="m 31.887499,27.999996 c -3.589347,0 -6.4875,2.898153 -6.4875,6.487497 v 4.3125 h -1.2 c -0.6648,0 -1.2,0.5352 -1.2,1.200005 v 10.80001 c 0,0.6648 0.5352,1.2 1.2,1.2 h 15.6 c 0.6648,0 1.200002,-0.5352 1.200002,-1.2 v -10.80002 c 0,-0.664795 -0.535202,-1.199995 -1.200002,-1.199995 h -1.2 v -4.3125 c 0,-3.589341 -2.898153,-6.487497 -6.4875,-6.487497 z m 0.1125,2.4 c 2.3268,0 4.2,1.873197 4.2,4.199997 v 4.2 h -8.4 v -4.2 c 0,-2.3268 1.8732,-4.199997 4.2,-4.199997 z"
     id="rect3174-8-5"
     inkscape:connector-curvature="0" />
  <path
     style="color:#000000;display:inline;overflow:visible;visibility:visible;fill:#ffffff;fill-opacity:1;fill-rule:evenodd;stroke:none;stroke-width:1.19999933;marker:none;enable-background:accumulate"
     d="m 31.887499,27 c -3.589347,0 -6.4875,2.898153 -6.4875,6.4875 V 37.8 h -1.2 c -0.6648,0 -1.2,0.5352 -1.2,1.2 v 10.8 c 0,0.6648 0.5352,1.2 1.2,1.2 h 15.6 c 0.6648,0 1.200002,-0.5352 1.200002,-1.2 V 39 c 0,-0.6648 -0.535202,-1.2 -1.200002,-1.2 h -1.2 v -4.3125 c 0,-3.589344 -2.898153,-6.4875 -6.4875,-6.4875 z m 0.1125,2.4 c 2.3268,0 4.2,1.8732 4.2,4.2 v 4.2 h -8.4 v -4.2 c 0,-2.3268 1.8732,-4.2 4.2,-4.2 z"
     id="rect3174-8"
     inkscape:connector-curvature="0" />
</svg>
