<?xml version="1.0" encoding="UTF-8" standalone="no"?>
<svg
   xmlns:dc="http://purl.org/dc/elements/1.1/"
   xmlns:cc="http://creativecommons.org/ns#"
   xmlns:rdf="http://www.w3.org/1999/02/22-rdf-syntax-ns#"
   xmlns:svg="http://www.w3.org/2000/svg"
   xmlns="http://www.w3.org/2000/svg"
   xmlns:xlink="http://www.w3.org/1999/xlink"
   xmlns:sodipodi="http://sodipodi.sourceforge.net/DTD/sodipodi-0.dtd"
   xmlns:inkscape="http://www.inkscape.org/namespaces/inkscape"
   id="svg26392"
   height="128"
   width="128"
   version="1.1"
   sodipodi:docname="vaults_128.svg"
   inkscape:version="0.92.3 (2405546, 2018-03-11)">
  <sodipodi:namedview
     pagecolor="#ffffff"
     bordercolor="#666666"
     borderopacity="1"
     objecttolerance="10"
     gridtolerance="10"
     guidetolerance="10"
     inkscape:pageopacity="0"
     inkscape:pageshadow="2"
     inkscape:window-width="1366"
     inkscape:window-height="705"
     id="namedview46"
     showgrid="false"
     inkscape:zoom="1.84375"
     inkscape:cx="3.413358"
     inkscape:cy="-22.375669"
     inkscape:window-x="0"
     inkscape:window-y="30"
     inkscape:window-maximized="1"
     inkscape:current-layer="svg26392" />
  <defs
     id="defs26394">
    <linearGradient
       gradientTransform="matrix(2.6658408,0,0,2.7170994,-143.33283,-5.198823)"
       gradientUnits="userSpaceOnUse"
       xlink:href="#linearGradient8272"
       id="linearGradient5891"
       y2="44.237919"
       x2="97.538795"
       y1="17.002993"
       x1="97.538795" />
    <linearGradient
       id="linearGradient8272">
      <stop
         offset="0"
         style="stop-color:#ffffff;stop-opacity:1"
         id="stop8274" />
      <stop
         offset="0.0221225"
         style="stop-color:#ffffff;stop-opacity:0.23529412"
         id="stop8276" />
      <stop
         offset="0.97909725"
         style="stop-color:#ffffff;stop-opacity:0.15686275"
         id="stop8278" />
      <stop
         offset="1"
         style="stop-color:#ffffff;stop-opacity:0.39215687"
         id="stop8280" />
    </linearGradient>
    <linearGradient
       gradientTransform="matrix(0.21400397,0,0,0.06588235,-13.347139,81.844376)"
       gradientUnits="userSpaceOnUse"
       xlink:href="#linearGradient5048-585"
       id="linearGradient5875"
       y2="609.50507"
       x2="302.85715"
       y1="366.64789"
       x1="302.85715" />
    <linearGradient
       id="linearGradient5048-585">
      <stop
         offset="0"
         style="stop-color:#000000;stop-opacity:0"
         id="stop2667" />
      <stop
         offset="0.5"
         style="stop-color:#000000;stop-opacity:1"
         id="stop2669" />
      <stop
         offset="1"
         style="stop-color:#000000;stop-opacity:0"
         id="stop2671" />
    </linearGradient>
    <radialGradient
       gradientTransform="matrix(0.08300137,0,0,0.06588235,65.645022,81.844376)"
       gradientUnits="userSpaceOnUse"
       xlink:href="#linearGradient5060-179"
       id="radialGradient5877"
       fy="486.64789"
       fx="605.71429"
       r="117.14286"
       cy="486.64789"
       cx="605.71429" />
    <linearGradient
       id="linearGradient5060-179">
      <stop
         offset="0"
         style="stop-color:#000000;stop-opacity:1"
         id="stop2675" />
      <stop
         offset="1"
         style="stop-color:#000000;stop-opacity:0"
         id="stop2677" />
    </linearGradient>
    <radialGradient
       gradientTransform="matrix(-0.08300135,0,0,0.06588235,62.354968,81.844376)"
       gradientUnits="userSpaceOnUse"
       xlink:href="#linearGradient5060-820"
       id="radialGradient5879"
       fy="486.64789"
       fx="605.71429"
       r="117.14286"
       cy="486.64789"
       cx="605.71429" />
    <linearGradient
       id="linearGradient5060-820">
      <stop
         offset="0"
         style="stop-color:#000000;stop-opacity:1"
         id="stop2681" />
      <stop
         offset="1"
         style="stop-color:#000000;stop-opacity:0"
         id="stop2683" />
    </linearGradient>
    <linearGradient
       gradientTransform="matrix(2.6658408,0,0,2.6469079,-143.33283,-2.049513)"
       gradientUnits="userSpaceOnUse"
       xlink:href="#linearGradient9235"
       id="linearGradient5873"
       y2="44.260689"
       x2="97.538795"
       y1="12.108284"
       x1="97.538795" />
    <linearGradient
       id="linearGradient9235">
      <stop
         offset="0"
         style="stop-color:#ffffff;stop-opacity:1"
         id="stop9237" />
      <stop
         offset="0.02350054"
         style="stop-color:#ffffff;stop-opacity:0.23529412"
         id="stop9239" />
      <stop
         offset="0.97909725"
         style="stop-color:#ffffff;stop-opacity:0.15686275"
         id="stop9241" />
      <stop
         offset="1"
         style="stop-color:#ffffff;stop-opacity:0.39215687"
         id="stop9243" />
    </linearGradient>
    <linearGradient
       id="linearGradient6404-7-5">
      <stop
         offset="0"
         style="stop-color:#f9f9f9;stop-opacity:1"
         id="stop6406-1-8" />
      <stop
         offset="1"
         style="stop-color:#c9c9c9;stop-opacity:1"
         id="stop6408-9-6" />
    </linearGradient>
    <linearGradient
       gradientTransform="matrix(2.7209303,0,0,2.6722576,-117.2202,-2.213873)"
       gradientUnits="userSpaceOnUse"
       xlink:href="#linearGradient6404-7-5"
       id="linearGradient26390"
       y2="16.997795"
       x2="62.988873"
       y1="14.090554"
       x1="62.988873" />
    <linearGradient
       id="linearGradient4632-0-6-4-4-4">
      <stop
         offset="0"
         style="stop-color:#efdfc4;stop-opacity:1"
         id="stop4634-4-4-7-4" />
      <stop
         offset="1"
         style="stop-color:#e7c591;stop-opacity:1"
         id="stop4636-3-1-5-9" />
    </linearGradient>
    <linearGradient
       y2="138.45531"
       x2="48.622746"
       y1="-19.357914"
       x1="48.622746"
       gradientTransform="matrix(0.50413225,0,0,0.49333391,-7.512295,48.695299)"
       gradientUnits="userSpaceOnUse"
       id="linearGradient1004"
       xlink:href="#linearGradient2867-449-88-871-390-598-476-591-434-148-57-177-8-3-3-6-4-8-8-8-5-7-8" />
    <linearGradient
       gradientTransform="matrix(1.3210282,0,0,1.2679796,-194.93328,-13.677599)"
       gradientUnits="userSpaceOnUse"
       xlink:href="#linearGradient8272-8-8"
       id="linearGradient5962"
       y2="44.027672"
       x2="97.538795"
       y1="17.21336"
       x1="97.538795" />
    <linearGradient
       id="linearGradient8272-8-8">
      <stop
         offset="0"
         style="stop-color:#ffffff;stop-opacity:1"
         id="stop8274-4" />
      <stop
         offset="0.00000002"
         style="stop-color:#ffffff;stop-opacity:0.23529412"
         id="stop8276-5" />
      <stop
         offset="1"
         style="stop-color:#ffffff;stop-opacity:0.15686275"
         id="stop8278-0" />
      <stop
         offset="1"
         style="stop-color:#ffffff;stop-opacity:0.39215687"
         id="stop8280-5-9" />
    </linearGradient>
    <linearGradient
       gradientTransform="matrix(0.50413225,0,0,0.49333391,-50.359757,-15.3047)"
       gradientUnits="userSpaceOnUse"
       xlink:href="#linearGradient2867-449-88-871-390-598-476-591-434-148-57-177-8-3-3-6-4-8-8-8-5-7-8"
       id="linearGradient5954"
       y2="119.05979"
       x2="-91"
       y1="43.999817"
       x1="-91" />
    <linearGradient
       id="linearGradient2867-449-88-871-390-598-476-591-434-148-57-177-8-3-3-6-4-8-8-8-5-7-8">
      <stop
         id="stop3750-1-0-7-6-6-1-3-9-3-9-2"
         style="stop-color:#404648;stop-opacity:1"
         offset="0" />
      <stop
         id="stop3754-1-8-5-2-7-6-7-1-9-1-0"
         style="stop-color:#0c1011;stop-opacity:1"
         offset="1" />
    </linearGradient>
    <radialGradient
       gradientTransform="matrix(-0.04016195,0,0,0.0329426,-93.998717,27.06991)"
       gradientUnits="userSpaceOnUse"
       xlink:href="#linearGradient5060-179"
       id="radialGradient5950"
       fy="486.64789"
       fx="605.71429"
       r="117.14286"
       cy="486.64789"
       cx="605.71429" />
    <linearGradient
       gradientTransform="matrix(0.1076923,0,0,0.03294117,-131.12581,27.07078)"
       gradientUnits="userSpaceOnUse"
       xlink:href="#linearGradient5048-585"
       id="linearGradient5946"
       y2="609.50507"
       x2="302.85715"
       y1="366.64789"
       x1="302.85715" />
    <radialGradient
       gradientTransform="matrix(0.04016195,0,0,0.0329426,-90.406747,27.06991)"
       gradientUnits="userSpaceOnUse"
       xlink:href="#linearGradient5060-179"
       id="radialGradient5942"
       fy="486.64789"
       fx="605.71429"
       r="117.14286"
       cy="486.64789"
       cx="605.71429" />
    <linearGradient
       y2="44.027672"
       x2="97.538795"
       y1="11.692767"
       x1="97.446732"
       gradientTransform="matrix(1.3210282,0,0,1.2679796,-194.93328,-13.677599)"
       gradientUnits="userSpaceOnUse"
       id="linearGradient1086"
       xlink:href="#linearGradient1096" />
    <linearGradient
       id="linearGradient1096">
      <stop
         id="stop1088"
         style="stop-color:#ffffff;stop-opacity:1"
         offset="0" />
      <stop
         id="stop1090"
         style="stop-color:#ffffff;stop-opacity:0.23529412"
         offset="0" />
      <stop
         id="stop1092"
         style="stop-color:#ffffff;stop-opacity:0.15686275"
         offset="1" />
      <stop
         id="stop1094"
         style="stop-color:#ffffff;stop-opacity:0.39215687"
         offset="1" />
    </linearGradient>
    <linearGradient
       gradientTransform="matrix(1.3135526,0,0,1.2900554,-179.68835,-15.07327)"
       gradientUnits="userSpaceOnUse"
       xlink:href="#linearGradient960"
       id="linearGradient22772"
       y2="16.997795"
       x2="62.988873"
       y1="14.900026"
       x1="62.988873" />
    <linearGradient
       id="linearGradient960">
      <stop
         id="stop956"
         style="stop-color:#fafafa;stop-opacity:1"
         offset="0" />
      <stop
         id="stop958"
         style="stop-color:#d4d4d4;stop-opacity:1"
         offset="1" />
    </linearGradient>
    <linearGradient
       y2="138.45531"
       x2="48.622746"
       y1="-19.357914"
       x1="48.622746"
       gradientTransform="matrix(0.50413225,0,0,0.49333391,151.94534,32.525887)"
       gradientUnits="userSpaceOnUse"
       id="linearGradient1004-3"
       xlink:href="#linearGradient4632-0-6-4-4-4" />
    <linearGradient
       gradientTransform="matrix(2.6658408,0,0,2.7170994,-176.95995,138.08939)"
       gradientUnits="userSpaceOnUse"
       xlink:href="#linearGradient8272"
       id="linearGradient5891-3"
       y2="44.237919"
       x2="97.538795"
       y1="17.002993"
       x1="97.538795" />
    <linearGradient
       y2="138.45531"
       x2="48.622746"
       y1="-19.357914"
       x1="48.622746"
       gradientTransform="matrix(0.50413225,0,0,0.49333391,-41.139411,191.98351)"
       gradientUnits="userSpaceOnUse"
       id="linearGradient1004-6"
       xlink:href="#linearGradient2867-449-88-871-390-598-476-591-434-148-57-177-8-3-3-6-4-8-8-8-5-7-8" />
  </defs>
  <metadata
     id="metadata26397">
    <rdf:RDF>
      <cc:Work
         rdf:about="">
        <dc:format>image/svg+xml</dc:format>
        <dc:type
           rdf:resource="http://purl.org/dc/dcmitype/StillImage" />
        <dc:title />
      </cc:Work>
    </rdf:RDF>
  </metadata>
  <path
     d="m 12.999997,21.031407 c -1.108,0 -2,0.892 -2,2 v 5.96875 H 7.9999966 c -1.108,0 -2,0.892 -2,2 v 11 c 0,1.108 0.892,2 2,2 H 120 c 1.108,0 2,-0.892 2,-2 v -11 c 0,-1.108 -0.892,-2 -2,-2 H 57.000001 v -5.96875 c 0,-1.108 -0.892,-2 -2,-2 z"
     id="rect8678-4"
     style="color:#000000;display:inline;overflow:visible;visibility:visible;fill:url(#linearGradient26390);fill-opacity:1;fill-rule:nonzero;stroke:none;stroke-width:1.00000012;marker:none;enable-background:accumulate" />
  <path
     d="m 13.662787,20.500317 c -1.87818,0.0205 -3.16279,0.9143 -3.16279,2.67225 v 5.32743 c -0.9606004,0 -1.4771004,-0.003 -2.1044004,0 -1.67856,0.008 -2.87762,0.94491 -2.87762,2.83298 0.0936,27.49765 -0.018,28.92194 -0.018,31.25655 3.90581,0 117.0000034,-9.88664 117.0000034,-14.1423 v -17.14209 c 0,-1.75796 -1.15786,-2.82564 -3.03605,-2.80514 H 57.499981 v -5.19887 c 0,-1.75795 -1.18743,-2.80081 -2.94827,-2.80081 H 13.662767 Z"
     id="path3468"
     style="color:#000000;display:inline;overflow:visible;visibility:visible;opacity:0.5;fill:none;stroke:#7e8087;stroke-width:0.99200022;stroke-linecap:square;stroke-linejoin:miter;stroke-miterlimit:4;stroke-dasharray:none;stroke-dashoffset:0;stroke-opacity:1;marker:none;enable-background:accumulate;font-variant-east_asian:normal;vector-effect:none;fill-opacity:1" />
  <path
     d="m 13.499997,21.500157 c -1.108,0 -2,0.892 -2,2 v 6 H 8.4999966 c -1.108,0 -2,0.892 -2,2 v 11 c 0,1.108 0.892,2 2,2 H 119.5 c 1.108,0 2,-0.892 2,-2 v -11 c 0,-1.108 -0.892,-2 -2,-2 H 56.500001 v -6 c 0,-1.108 -0.892,-2 -2,-2 z"
     id="rect8678"
     style="color:#000000;display:inline;overflow:visible;visibility:visible;fill:none;stroke:url(#linearGradient5873);stroke-width:0.99999982;stroke-linecap:round;stroke-linejoin:round;stroke-miterlimit:4;stroke-dasharray:none;stroke-dashoffset:0;stroke-opacity:1;marker:none;enable-background:accumulate" />
  <rect
     style="display:inline;overflow:visible;visibility:visible;opacity:0.3;fill:url(#linearGradient5875);fill-opacity:1;fill-rule:nonzero;stroke:none;stroke-width:0.99732828;marker:none"
     id="rect4173"
     y="106"
     x="12.333332"
     height="16"
     width="103.33332" />
  <path
     style="display:inline;overflow:visible;visibility:visible;opacity:0.3;fill:url(#radialGradient5877);fill-opacity:1;fill-rule:nonzero;stroke:none;stroke-width:0.99732828;marker:none"
     id="path5058"
     d="m 115.66666,106.00055 c 0,0 0,15.99912 0,15.99912 4.27436,0.0302 10.33333,-3.58459 10.33333,-8.00059 0,-4.416 -4.76987,-7.99853 -10.33333,-7.99853 z" />
  <path
     style="display:inline;overflow:visible;visibility:visible;opacity:0.3;fill:url(#radialGradient5879);fill-opacity:1;fill-rule:nonzero;stroke:none;stroke-width:0.99732828;marker:none"
     id="path5018"
     d="m 12.333332,106.00055 c 0,0 0,15.99912 0,15.99912 C 8.0589669,122.02982 2,118.41508 2,113.99908 c 0,-4.416 4.7698684,-7.99853 10.333332,-7.99853 z" />
  <path
     d="m 6.2499966,39.499947 115.4999934,10e-4 c 1.66861,0 2.75001,1.18375 2.75001,2.65543 l -2.71648,71.780683 c 0.0386,1.86211 -0.55015,2.60044 -2.48884,2.56139 L 9.3616366,116.45175 c -1.66859,0 -3.35116,-1.09895 -3.35116,-2.57064 l -2.51048,-71.724693 c 0,-1.47169 1.0814,-2.65647 2.75,-2.65647 z"
     id="path3369"
     style="display:inline;overflow:visible;visibility:visible;fill:url(#linearGradient1004);fill-opacity:1.0;fill-rule:nonzero;stroke:none;stroke-width:0.99999982;marker:none;enable-background:accumulate;font-variant-east_asian:normal;opacity:1;vector-effect:none;stroke-linecap:butt;stroke-linejoin:miter;stroke-miterlimit:4;stroke-dasharray:none;stroke-dashoffset:0;stroke-opacity:0.49803922" />
  <path
     d="m 6.2499966,40.500147 c -2.84882,0.29656 -1.40933,3.76689 -1.63989,5.72017 0.78584,22.54795 1.57466,45.09583 2.35864,67.643813 1.18868,2.48974 4.4300904,1.28205 6.6383204,1.57433 35.235146,0.0205 70.470294,0.0412 105.705433,0.0617 2.566,-0.16531 1.15721,-3.81803 1.65357,-5.65555 0.85465,-22.569493 2.54292,-67.571353 2.54292,-67.571353 0,-1.16209 -0.77992,-1.7731 -2.20738,-1.7731 -37.089309,0 -77.962299,0 -115.0516134,0 z"
     id="path8263"
     style="display:inline;overflow:visible;visibility:visible;opacity:0.5;fill:none;stroke:url(#linearGradient5891);stroke-width:0.99999988;stroke-linecap:round;stroke-linejoin:round;stroke-miterlimit:4;stroke-dasharray:none;stroke-dashoffset:0;stroke-opacity:1;marker:none;enable-background:accumulate" />
  <path
     inkscape:connector-curvature="0"
     d="m 6.2499966,39.499947 115.4999934,10e-4 c 1.66861,0 2.75001,1.18375 2.75001,2.65543 l -2.71648,71.780683 c 0.0386,1.86211 -0.55015,2.60044 -2.48884,2.56139 L 9.3616366,116.45175 c -1.66859,0 -3.35116,-1.09895 -3.35116,-2.57064 l -2.51048,-71.724693 c 0,-1.47169 1.0814,-2.65647 2.75,-2.65647 z"
     id="path3369-5"
     style="display:inline;overflow:visible;visibility:visible;opacity:0.7;vector-effect:none;fill:none;fill-opacity:1;fill-rule:nonzero;stroke:#000000;stroke-width:0.99999982;stroke-linecap:butt;stroke-linejoin:miter;stroke-miterlimit:4;stroke-dasharray:none;stroke-dashoffset:0;stroke-opacity:1;marker:none;enable-background:accumulate" />
  <path
     style="display:inline;overflow:visible;visibility:visible;opacity:0.6;vector-effect:none;fill:#5f5f5f;fill-opacity:1;fill-rule:nonzero;stroke:none;stroke-width:0.99999982;stroke-linecap:butt;stroke-linejoin:miter;stroke-miterlimit:4;stroke-dasharray:none;stroke-dashoffset:0;stroke-opacity:0.49803922;marker:none;enable-background:accumulate"
     d="m 6.2897109,41.00587 c -0.5986,0.0647 -0.8704775,0.25145 -1.0546875,0.52344 -0.016803,0.02481 -0.029614,0.05674 -0.044922,0.08398 v 7.00195 c 0.00454,0.13021 0.00913,0.26042 0.013672,0.39063 h 7.9863276 v -8 z m 6.9003901,8 v 8 h 8 v -8 z m 8,0 h 8 v -8 h -8 z m 8,0 v 8 h 8 v -8 z m 8,0 h 8 v -8 h -8 z m 8,0 v 8 h 8 v -8 z m 8,0 h 8 v -8 h -8 z m 8,0 v 8 h 8 v -8 z m 8,0 h 8 v -8 h -8 z m 8,0 v 8 h 8 v -8 z m 8,0 h 8 v -8 h -8 z m 8,0 v 8 h 7.999999 v -8 z m 7.999999,0 h 8 v -8 h -8 z m 8,0 v 8 h 8 v -8 z m 8,0 h 5.5625 c 0.0311,-0.82753 0.25382,-6.72619 0.25391,-6.72852 v -0.002 c -4.6e-4,-0.4676 -0.13051,-0.72793 -0.38086,-0.92773 -0.2508,-0.20016 -0.68574,-0.3418 -1.32813,-0.3418 h -4.10742 z m 0,8 v 8 h 4.96094 c 0.10076,-2.68141 0.22774,-6.05549 0.30078,-8 z m 0,8 h -8 v 8 h 8 z m -8,0 v -8 h -8 v 8 z m -8,0 h -7.999999 v 8 h 7.999999 z m -7.999999,0 v -8 h -8 v 8 z m -8,0 h -8 v 8 h 8 z m -8,0 v -8 h -8 v 8 z m -8,0 h -8 v 8 h 8 z m -8,0 v -8 h -8 v 8 z m -8,0 h -8 v 8 h 8 z m -8,0 v -8 h -8 v 8 z m -8,0 h -8 v 8 h 8 z m -8,0 v -8 h -8 v 8 z m -8,0 h -8 v 8 h 8 z m -8,0 v -8 H 5.4830703 c 0.093032,2.66666 0.1862264,5.33333 0.2792969,8 z"
     id="path1122"
     inkscape:connector-curvature="0" />
  <path
     id="rect3174-8-0-7"
     style="color:#000000;display:inline;overflow:visible;visibility:visible;opacity:0.15;fill:#000000;fill-opacity:1;fill-rule:evenodd;stroke:none;stroke-width:2.39999866;marker:none;enable-background:accumulate"
     d="m 63.773428,54.000002 c -7.71697,0 -13.97461,6.25762 -13.97461,13.9746 v 7.625 h -1.40039 c -1.8663,0 -3.39843,1.53409 -3.39843,3.4004 V 100.5996 c 0,1.86631 1.53213,3.4004 3.39843,3.4004 h 31.20118 c 1.8663,0 3.40039,-1.53409 3.40039,-3.4004 V 79.000002 c 0,-1.86631 -1.53409,-3.4004 -3.40039,-3.4004 h -1.40039 v -7.625 c 0,-7.71697 -6.25763,-13.9746 -13.97461,-13.9746 z m 0.22657,6.80078 c 4.11689,0 7.39843,3.28349 7.39843,7.40039 v 7.39843 h -14.79882 v -7.39843 c 0,-4.1169 3.28349,-7.40039 7.40039,-7.40039 z"
     inkscape:connector-curvature="0" />
  <path
     style="color:#000000;display:inline;overflow:visible;visibility:visible;opacity:0.3;fill:#000000;fill-opacity:1;fill-rule:evenodd;stroke:none;stroke-width:2.39999866;marker:none;enable-background:accumulate"
     d="m 63.774993,55.000002 c -7.17869,0 -12.975,5.7963 -12.975,12.975 v 8.625 h -2.39999 c -1.3296,0 -2.4,1.0704 -2.4,2.4 V 100.6 c 0,1.3296 1.0704,2.4 2.4,2.4 h 31.19999 c 1.3296,0 2.4,-1.0704 2.4,-2.4 V 79.000002 c 0,-1.3296 -1.0704,-2.4 -2.4,-2.4 h -2.4 v -8.625 c 0,-7.17869 -5.79631,-12.975 -12.975,-12.975 z m 0.225,4.8 c 4.6536,0 8.4,3.7464 8.4,8.4 v 8.4 h -16.8 v -8.4 c 0,-4.6536 3.7464,-8.4 8.4,-8.4 z"
     id="rect3174-8-0"
     inkscape:connector-curvature="0" />
  <path
     style="color:#000000;display:inline;overflow:visible;visibility:visible;fill:#ffffff;fill-opacity:1;fill-rule:evenodd;stroke:none;stroke-width:2.39999866;marker:none;enable-background:accumulate"
     d="m 63.774991,53.999931 c -7.178694,0 -12.975,5.796306 -12.975,12.975 v 8.625 h -2.39999 c -1.3296,0 -2.4,1.0704 -2.4,2.4 v 21.6 c 0,1.329599 1.0704,2.399999 2.4,2.399999 h 31.19999 c 1.3296,0 2.400004,-1.0704 2.400004,-2.399999 v -21.6 c 0,-1.3296 -1.070404,-2.4 -2.400004,-2.4 h -2.4 v -8.625 c 0,-7.178688 -5.796306,-12.975 -12.975,-12.975 z m 0.225,4.8 c 4.6536,0 8.4,3.7464 8.4,8.4 v 8.4 h -16.8 v -8.4 c 0,-4.6536 3.7464,-8.4 8.4,-8.4 z"
     id="rect3174-8"
     inkscape:connector-curvature="0" />
</svg>
