<?xml version="1.0" encoding="UTF-8" standalone="no"?>
<svg
   xmlns:dc="http://purl.org/dc/elements/1.1/"
   xmlns:cc="http://creativecommons.org/ns#"
   xmlns:rdf="http://www.w3.org/1999/02/22-rdf-syntax-ns#"
   xmlns:svg="http://www.w3.org/2000/svg"
   xmlns="http://www.w3.org/2000/svg"
   xmlns:xlink="http://www.w3.org/1999/xlink"
   xmlns:sodipodi="http://sodipodi.sourceforge.net/DTD/sodipodi-0.dtd"
   xmlns:inkscape="http://www.inkscape.org/namespaces/inkscape"
   id="svg14288"
   height="32"
   width="32"
   version="1.1"
   sodipodi:docname="vaults_32.svg"
   inkscape:version="0.92.3 (2405546, 2018-03-11)">
  <sodipodi:namedview
     pagecolor="#ffffff"
     bordercolor="#666666"
     borderopacity="1"
     objecttolerance="10"
     gridtolerance="10"
     guidetolerance="10"
     inkscape:pageopacity="0"
     inkscape:pageshadow="2"
     inkscape:window-width="1366"
     inkscape:window-height="705"
     id="namedview46"
     showgrid="false"
     inkscape:zoom="14.75"
     inkscape:cx="4.6261132"
     inkscape:cy="7.8475727"
     inkscape:window-x="0"
     inkscape:window-y="30"
     inkscape:window-maximized="1"
     inkscape:current-layer="svg14288" />
  <defs
     id="defs14290">
    <linearGradient
       gradientTransform="matrix(0.89186139,0,0,1.0539115,3.1208294,5.412539)"
       gradientUnits="userSpaceOnUse"
       xlink:href="#linearGradient3454-2-5-0-3-4"
       id="linearGradient5926"
       y2="21.386522"
       x2="27.557428"
       y1="7.162672"
       x1="27.557428" />
    <linearGradient
       id="linearGradient3454-2-5-0-3-4">
      <stop
         offset="0"
         style="stop-color:#ffffff;stop-opacity:1"
         id="stop3456-4-9-38-1-8" />
      <stop
         offset="0.0097359"
         style="stop-color:#ffffff;stop-opacity:0.23529412"
         id="stop3458-39-80-3-5-5" />
      <stop
         offset="0.99001008"
         style="stop-color:#ffffff;stop-opacity:0.15686275"
         id="stop3460-7-0-2-4-2" />
      <stop
         offset="1"
         style="stop-color:#ffffff;stop-opacity:0.39215687"
         id="stop3462-0-9-8-7-2" />
    </linearGradient>
    <linearGradient
       gradientTransform="matrix(0.05114282,0,0,0.01591575,-2.4897779,21.299269)"
       gradientUnits="userSpaceOnUse"
       xlink:href="#linearGradient5048-585-0"
       id="linearGradient5905"
       y2="609.50507"
       x2="302.85715"
       y1="366.64789"
       x1="302.85715" />
    <linearGradient
       id="linearGradient5048-585-0">
      <stop
         offset="0"
         style="stop-color:#000000;stop-opacity:0"
         id="stop2667-18" />
      <stop
         offset="0.5"
         style="stop-color:#000000;stop-opacity:1"
         id="stop2669-9" />
      <stop
         offset="1"
         style="stop-color:#000000;stop-opacity:0"
         id="stop2671-33" />
    </linearGradient>
    <radialGradient
       gradientTransform="matrix(0.01983573,0,0,0.01591575,16.387829,21.299269)"
       gradientUnits="userSpaceOnUse"
       xlink:href="#linearGradient5060-179-67"
       id="radialGradient5907"
       fy="486.64789"
       fx="605.71429"
       r="117.14286"
       cy="486.64789"
       cx="605.71429" />
    <linearGradient
       id="linearGradient5060-179-67">
      <stop
         offset="0"
         style="stop-color:#000000;stop-opacity:1"
         id="stop2675-81" />
      <stop
         offset="1"
         style="stop-color:#000000;stop-opacity:0"
         id="stop2677-2" />
    </linearGradient>
    <radialGradient
       gradientTransform="matrix(-0.01983573,0,0,0.01591575,15.601569,21.299269)"
       gradientUnits="userSpaceOnUse"
       xlink:href="#linearGradient5060-820-4"
       id="radialGradient5909"
       fy="486.64789"
       fx="605.71429"
       r="117.14286"
       cy="486.64789"
       cx="605.71429" />
    <linearGradient
       id="linearGradient5060-820-4">
      <stop
         offset="0"
         style="stop-color:#000000;stop-opacity:1"
         id="stop2681-5" />
      <stop
         offset="1"
         style="stop-color:#000000;stop-opacity:0"
         id="stop2683-00" />
    </linearGradient>
    <linearGradient
       gradientTransform="matrix(0.54383556,0,0,0.61466406,3.2688794,5.091139)"
       gradientUnits="userSpaceOnUse"
       xlink:href="#linearGradient4325"
       id="linearGradient5903"
       y2="34.016731"
       x2="21.571081"
       y1="7.9862504"
       x1="21.571081" />
    <linearGradient
       id="linearGradient4325">
      <stop
         offset="0"
         style="stop-color:#ffffff;stop-opacity:1"
         id="stop4327" />
      <stop
         offset="0"
         style="stop-color:#ffffff;stop-opacity:0.23529412"
         id="stop4329" />
      <stop
         offset="0.99001008"
         style="stop-color:#ffffff;stop-opacity:0.15686275"
         id="stop4331" />
      <stop
         offset="1"
         style="stop-color:#ffffff;stop-opacity:0.39215687"
         id="stop4333" />
    </linearGradient>
    <linearGradient
       gradientTransform="matrix(0.61904762,0,0,0.61904762,-30.391811,1.428569)"
       gradientUnits="userSpaceOnUse"
       xlink:href="#linearGradient960"
       id="linearGradient5899"
       y2="16"
       x2="62.988873"
       y1="13"
       x1="62.988873" />
    <linearGradient
       id="linearGradient960">
      <stop
         id="stop956"
         style="stop-color:#fafafa;stop-opacity:1"
         offset="0" />
      <stop
         id="stop958"
         style="stop-color:#d4d4d4;stop-opacity:1"
         offset="1" />
    </linearGradient>
    <linearGradient
       id="linearGradient4632-0-6-4-4-4">
      <stop
         offset="0"
         style="stop-color:#efdfc4;stop-opacity:1"
         id="stop4634-4-4-7-4" />
      <stop
         offset="1"
         style="stop-color:#e7c591;stop-opacity:1"
         id="stop4636-3-1-5-9" />
    </linearGradient>
    <linearGradient
       y2="103.2508"
       x2="23.587299"
       y1="64.737335"
       x1="23.587299"
       gradientTransform="matrix(0.50413225,0,0,0.49333391,4.108882,-20.937122)"
       gradientUnits="userSpaceOnUse"
       id="linearGradient1048"
       xlink:href="#linearGradient2867-449-88-871-390-598-476-591-434-148-57-177-8-3-3-6-4-8-8-8-5-7-8" />
    <linearGradient
       x1="42.470848"
       y1="11.952797"
       x2="42.470848"
       y2="35.581654"
       id="linearGradient12489"
       xlink:href="#linearGradient3454-2-5-0-3-4"
       gradientUnits="userSpaceOnUse"
       gradientTransform="matrix(0.89189031,0,0,1.0986542,-52.124725,-22.487794)" />
    <linearGradient
       xlink:href="#linearGradient2867-449-88-871-390-598-476-591-434-148-57-177-8-3-3-6-4-8-8-8-5-7-8"
       id="linearGradient997"
       gradientUnits="userSpaceOnUse"
       gradientTransform="matrix(0.50413225,0,0,0.49333391,-52.169623,-37.408515)"
       x1="45.428802"
       y1="52.770573"
       x2="45.428802"
       y2="113.49406" />
    <linearGradient
       id="linearGradient2867-449-88-871-390-598-476-591-434-148-57-177-8-3-3-6-4-8-8-8-5-7-8">
      <stop
         id="stop3750-1-0-7-6-6-1-3-9-3-9-2"
         style="stop-color:#404648;stop-opacity:1"
         offset="0" />
      <stop
         id="stop3754-1-8-5-2-7-6-7-1-9-1-0"
         style="stop-color:#0c1011;stop-opacity:1"
         offset="1" />
    </linearGradient>
    <radialGradient
       cx="605.71429"
       cy="486.64789"
       r="117.14286"
       fx="605.71429"
       fy="486.64789"
       id="radialGradient12475"
       xlink:href="#linearGradient5060-179-67"
       gradientUnits="userSpaceOnUse"
       gradientTransform="matrix(-0.03079083,0,0,0.02470588,-31.877746,5.5666375)" />
    <radialGradient
       cx="605.71429"
       cy="486.64789"
       r="117.14286"
       fx="605.71429"
       fy="486.64789"
       id="radialGradient12471"
       xlink:href="#linearGradient5060-179-67"
       gradientUnits="userSpaceOnUse"
       gradientTransform="matrix(0.03079083,0,0,0.02470588,-30.657246,5.5666375)" />
    <linearGradient
       x1="302.85715"
       y1="366.64789"
       x2="302.85715"
       y2="609.50507"
       id="linearGradient12467"
       xlink:href="#linearGradient5048-585-0"
       gradientUnits="userSpaceOnUse"
       gradientTransform="matrix(0.07938856,0,0,0.02470588,-59.960786,5.5666375)" />
    <linearGradient
       x1="21.37039"
       y1="7.2270284"
       x2="21.37039"
       y2="34.143417"
       id="linearGradient12463"
       xlink:href="#linearGradient4325"
       gradientUnits="userSpaceOnUse"
       gradientTransform="matrix(0.89189031,0,0,1.0580283,-52.146836,-21.021402)" />
    <linearGradient
       x1="62.988873"
       y1="13"
       x2="62.988873"
       y2="16"
       id="linearGradient12459"
       xlink:href="#linearGradient4646-7-4-3"
       gradientUnits="userSpaceOnUse"
       gradientTransform="translate(-106.20839,-26.375002)" />
    <linearGradient
       id="linearGradient4646-7-4-3">
      <stop
         id="stop4648-8-0-3"
         style="stop-color:#f9f9f9;stop-opacity:1"
         offset="0" />
      <stop
         id="stop4650-1-7-3"
         style="stop-color:#d8d8d8;stop-opacity:1"
         offset="1" />
    </linearGradient>
    <linearGradient
       y2="103.2508"
       x2="23.587299"
       y1="64.737335"
       x1="23.587299"
       gradientTransform="matrix(0.50413225,0,0,0.49333391,58.280704,-29.193118)"
       gradientUnits="userSpaceOnUse"
       id="linearGradient1048-3"
       xlink:href="#linearGradient4632-0-6-4-4-4" />
    <linearGradient
       gradientTransform="matrix(0.89186139,0,0,1.0539115,0.14883562,48.355868)"
       gradientUnits="userSpaceOnUse"
       xlink:href="#linearGradient3454-2-5-0-3-4"
       id="linearGradient5926-3"
       y2="21.386522"
       x2="27.557428"
       y1="7.162672"
       x1="27.557428" />
    <linearGradient
       y2="103.2508"
       x2="23.587299"
       y1="64.737335"
       x1="23.587299"
       gradientTransform="matrix(0.50413225,0,0,0.49333391,1.1368882,22.006207)"
       gradientUnits="userSpaceOnUse"
       id="linearGradient1048-1"
       xlink:href="#linearGradient2867-449-88-871-390-598-476-591-434-148-57-177-8-3-3-6-4-8-8-8-5-7-8" />
    <linearGradient
       y2="103.2508"
       x2="23.587299"
       y1="64.737335"
       x1="23.587299"
       gradientTransform="matrix(0.50413225,0,0,0.49333391,-8.2416233,4.8630175)"
       gradientUnits="userSpaceOnUse"
       id="linearGradient1048-36"
       xlink:href="#linearGradient2867-449-88-871-390-598-476-591-434-148-57-177-8-3-3-6-4-8-8-8-5-7-8" />
    <linearGradient
       gradientTransform="matrix(0.89186139,0,0,1.0539115,-9.2296759,31.212678)"
       gradientUnits="userSpaceOnUse"
       xlink:href="#linearGradient3454-2-5-0-3-4"
       id="linearGradient5926-35"
       y2="21.386522"
       x2="27.557428"
       y1="7.162672"
       x1="27.557428" />
  </defs>
  <metadata
     id="metadata14293">
    <rdf:RDF>
      <cc:Work
         rdf:about="">
        <dc:format>image/svg+xml</dc:format>
        <dc:type
           rdf:resource="http://purl.org/dc/dcmitype/StillImage" />
        <dc:title />
      </cc:Work>
    </rdf:RDF>
  </metadata>
  <path
     d="m 4.0001794,6.500079 c -0.43342,0.005 -0.5,0.21723 -0.5,0.6349 v 1.36502 c -1.24568,0 -1,-0.002 -1,0.54389 0.0216,6.53313 0,6.90143 0,7.45611 0.90135,0 26.9999996,-2.34895 26.9999996,-3.36005 v -4.09606 c 0,-0.41767 -0.34799,-0.54876 -0.78141,-0.54389 h -14.21859 v -1.36502 c 0,-0.41767 -0.26424,-0.63977 -0.69767,-0.6349 z"
     id="path3468-10"
     style="color:#000000;display:inline;overflow:visible;visibility:visible;opacity:0.5;fill:none;stroke:#7e8087;stroke-width:0.99200022;stroke-linecap:square;stroke-linejoin:miter;stroke-miterlimit:4;stroke-dasharray:none;stroke-dashoffset:0;stroke-opacity:1;marker:none;enable-background:accumulate;font-variant-east_asian:normal;vector-effect:none;fill-opacity:1" />
  <path
     d="m 4.0001794,6.999999 v 2 h -1 v 4 H 29.000179 v -4 h -15 v -2 z"
     id="rect3409-5"
     style="color:#000000;display:inline;overflow:visible;visibility:visible;fill:url(#linearGradient5899);fill-opacity:1.0;fill-rule:nonzero;stroke:none;stroke-width:1;marker:none;enable-background:accumulate" />
  <path
     d="m 4.5001794,7.499999 v 2 h -1 v 4 H 28.500179 v -4 h -15 v -2 z"
     id="rect3409"
     style="color:#000000;display:inline;overflow:visible;visibility:visible;fill:none;stroke:url(#linearGradient5903);stroke-width:1;stroke-linecap:round;stroke-linejoin:miter;stroke-miterlimit:4;stroke-dasharray:none;stroke-dashoffset:0;stroke-opacity:1;marker:none;enable-background:accumulate" />
  <rect
     style="display:inline;overflow:visible;visibility:visible;opacity:0.3;fill:url(#linearGradient5905);fill-opacity:1;fill-rule:nonzero;stroke:none;stroke-width:1;marker:none"
     id="rect4173-1"
     y="27.134745"
     x="3.6473608"
     height="3.8652544"
     width="24.694677" />
  <path
     style="display:inline;overflow:visible;visibility:visible;opacity:0.3;fill:url(#radialGradient5907);fill-opacity:1;fill-rule:nonzero;stroke:none;stroke-width:1;marker:none"
     id="path5058-4"
     d="m 28.342038,27.134879 c 0,0 0,3.865041 0,3.865041 1.021491,0.0073 2.469468,-0.86596 2.469468,-1.932769 0,-1.06681 -1.139908,-1.932272 -2.469468,-1.932272 z" />
  <path
     style="display:inline;overflow:visible;visibility:visible;opacity:0.3;fill:url(#radialGradient5909);fill-opacity:1;fill-rule:nonzero;stroke:none;stroke-width:1;marker:none"
     id="path5018-84"
     d="m 3.647361,27.134879 c 0,0 0,3.865041 0,3.865041 -1.0214912,0.0073 -2.4694678,-0.86596 -2.4694678,-1.932769 0,-1.06681 1.1399068,-1.932272 2.4694678,-1.932272 z" />
  <path
     d="m 1.9270194,11.499999 c -0.69105,0.0796 -0.32196,0.90258 -0.37705,1.36535 0.0802,0.29906 0.59771,15.71799 0.59771,16.24744 0,0.46018 0.22667,0.38222 0.80101,0.38222 8.4993996,0 17.8980796,0 26.3974796,0 0.61872,0.0143 0.48796,0.007 0.48796,-0.38947 0.0452,-0.20269 0.63993,-16.97848 0.66282,-17.24344 0,-0.279 0.0581,-0.3621 -0.30493,-0.3621 -9.0765,0 -19.18849,0 -28.2649996,0 z"
     id="path3388"
     style="color:#000000;display:inline;overflow:visible;visibility:visible;fill:url(#linearGradient1048);fill-opacity:1.0;fill-rule:nonzero;stroke:none;stroke-width:0.99999982;marker:none;enable-background:accumulate;font-variant-east_asian:normal;opacity:1;vector-effect:none;stroke-linecap:butt;stroke-linejoin:miter;stroke-miterlimit:4;stroke-dasharray:none;stroke-dashoffset:0;stroke-opacity:0.49803922" />
  <path
     d="m 2.5001794,12.499999 0.62498,16 H 28.874329 l 0.62498,-16 z"
     id="path3309"
     style="color:#000000;display:inline;overflow:visible;visibility:visible;opacity:0.5;fill:none;stroke:url(#linearGradient5926);stroke-width:1.00000012;stroke-linecap:round;stroke-linejoin:miter;stroke-miterlimit:4;stroke-dasharray:none;stroke-dashoffset:0;stroke-opacity:1;marker:none;enable-background:accumulate" />
  <path
     inkscape:connector-curvature="0"
     d="m 1.9270194,11.499999 c -0.69105,0.0796 -0.32196,0.90258 -0.37705,1.36535 0.0802,0.29906 0.59771,15.71799 0.59771,16.24744 0,0.46018 0.22667,0.38222 0.80101,0.38222 8.4993996,0 17.8980796,0 26.3974796,0 0.61872,0.0143 0.48796,0.007 0.48796,-0.38947 0.0452,-0.20269 0.63993,-16.97848 0.66282,-17.24344 0,-0.279 0.0581,-0.3621 -0.30493,-0.3621 -9.0765,0 -19.18849,0 -28.2649996,0 z"
     id="path3388-5"
     style="color:#000000;display:inline;overflow:visible;visibility:visible;opacity:0.7;vector-effect:none;fill:none;fill-opacity:1;fill-rule:nonzero;stroke:#000000;stroke-width:0.99999982;stroke-linecap:butt;stroke-linejoin:miter;stroke-miterlimit:4;stroke-dasharray:none;stroke-dashoffset:0;stroke-opacity:1;marker:none;enable-background:accumulate" />
  <path
     style="color:#000000;display:inline;overflow:visible;visibility:visible;opacity:0.6;vector-effect:none;fill:#5f5f5f;fill-opacity:1;fill-rule:nonzero;stroke:none;stroke-width:0.99999982;stroke-linecap:butt;stroke-linejoin:miter;stroke-miterlimit:4;stroke-dasharray:none;stroke-dashoffset:0;stroke-opacity:0.49803922;marker:none;enable-background:accumulate"
     d="m 3.0001794,12.999999 0.078125,2 h 1.921875 v -2 z m 2,2 v 2 h 2 v -2 z m 2,0 h 2 v -2 h -2 z m 2,0 v 2 h 1.9999996 v -2 z m 1.9999996,0 h 2 v -2 h -2 z m 2,0 v 2 h 2 v -2 z m 2,0 h 2 v -2 h -2 z m 2,0 v 2 h 2 v -2 z m 2,0 h 2 v -2 h -2 z m 2,0 v 2 h 2.000001 v -2 z m 2.000001,0 h 2 v -2 h -2 z m 2,0 v 2 h 2 v -2 h 1.882812 l 0.07813,-2 h -2 v 2 z m 2,2 v 2 h 1.726562 l 0.07813,-2 z m 0,2 h -2 v 2 h 2 z m -2,0 v -2 h -2 v 2 z m -2,0 h -2.000001 v 2 h 2.000001 z m -2.000001,0 v -2 h -2 v 2 z m -2,0 h -2 v 2 h 2 z m -2,0 v -2 h -2 v 2 z m -2,0 h -2 v 2 h 2 z m -2,0 v -2 h -2 v 2 z m -2,0 H 9.0001794 v 2 h 1.9999996 z m -1.9999996,0 v -2 h -2 v 2 z m -2,0 h -2 v 2 h 2 z m -2,0 v -2 h -1.84375 l 0.078125,2 z"
     id="path3388-2"
     inkscape:connector-curvature="0" />
  <path
     id="rect3174-8-3-7"
     style="color:#000000;display:inline;overflow:visible;visibility:visible;opacity:0.15;fill:#000000;fill-opacity:1;fill-rule:evenodd;stroke:none;stroke-width:0.54999965;marker:none;enable-background:accumulate"
     d="m 15.949401,15 c -2.183406,0 -3.97461,1.791204 -3.97461,3.97461 v 1.166015 C 11.37024,20.353416 10.875182,20.832417 10.875182,21.5 v 4.951172 C 10.875182,27.292575 11.58456,28 12.425963,28 h 7.150391 c 0.841402,0 1.548828,-0.707423 1.548828,-1.548828 V 21.5 c 0,-0.66796 -0.49454,-1.146883 -1.09961,-1.359375 V 18.97461 C 20.025572,16.791205 18.236323,15 16.052916,15 Z m 0.05078,3.101563 c 0.529747,0 0.925781,0.394081 0.925781,0.923828 v 0.925781 h -1.849609 v -0.925781 c 0,-0.529747 0.394081,-0.923828 0.923828,-0.923828 z"
     inkscape:connector-curvature="0" />
  <path
     style="color:#000000;display:inline;overflow:visible;visibility:visible;opacity:0.3;fill:#000000;fill-opacity:1;fill-rule:evenodd;stroke:none;stroke-width:0.54999965;marker:none;enable-background:accumulate"
     d="m 15.94862,16 c -1.645118,0 -2.973438,1.32832 -2.973438,2.973437 V 20.95 h -0.55 c -0.3047,0 -0.55,0.2453 -0.55,0.55 v 4.95 c 0,0.3047 0.2453,0.55 0.55,0.55 h 7.15 c 0.3047,0 0.550001,-0.2453 0.550001,-0.55 V 21.5 c 0,-0.3047 -0.245301,-0.55 -0.550001,-0.55 h -0.55 V 18.973437 C 19.025182,17.328322 17.696862,16 16.051744,16 Z m 0.05156,1.1 c 1.06645,0 1.925,0.85855 1.925,1.925 v 1.925 h -3.85 v -1.925 c 0,-1.06645 0.85855,-1.925 1.925,-1.925 z"
     id="rect3174-8-3"
     inkscape:connector-curvature="0" />
  <path
     style="color:#000000;display:inline;overflow:visible;visibility:visible;fill:#ffffff;fill-opacity:1;fill-rule:evenodd;stroke:none;stroke-width:0.54999965;marker:none;enable-background:accumulate"
     d="m 15.94862,15.000001 c -1.645118,0 -2.973438,1.32832 -2.973438,2.973437 v 1.976563 h -0.55 c -0.3047,0 -0.55,0.2453 -0.55,0.55 v 4.95 c 0,0.3047 0.2453,0.55 0.55,0.55 h 7.15 c 0.3047,0 0.550001,-0.2453 0.550001,-0.55 v -4.95 c 0,-0.3047 -0.245301,-0.55 -0.550001,-0.55 h -0.55 v -1.976563 c 0,-1.645115 -1.32832,-2.973437 -2.973438,-2.973437 z m 0.05156,1.1 c 1.06645,0 1.925,0.85855 1.925,1.925 v 1.925 h -3.85 v -1.925 c 0,-1.06645 0.85855,-1.925 1.925,-1.925 z"
     id="rect3174-8"
     inkscape:connector-curvature="0" />
</svg>
