<?xml version="1.0" encoding="UTF-8" standalone="no"?>
<svg
   xmlns:dc="http://purl.org/dc/elements/1.1/"
   xmlns:cc="http://creativecommons.org/ns#"
   xmlns:rdf="http://www.w3.org/1999/02/22-rdf-syntax-ns#"
   xmlns:svg="http://www.w3.org/2000/svg"
   xmlns="http://www.w3.org/2000/svg"
   xmlns:xlink="http://www.w3.org/1999/xlink"
   xmlns:sodipodi="http://sodipodi.sourceforge.net/DTD/sodipodi-0.dtd"
   xmlns:inkscape="http://www.inkscape.org/namespaces/inkscape"
   id="svg8860"
   height="16"
   width="16"
   version="1.1"
   sodipodi:docname="vaults_16.svg"
   inkscape:version="0.92.3 (2405546, 2018-03-11)">
  <sodipodi:namedview
     pagecolor="#ffffff"
     bordercolor="#666666"
     borderopacity="1"
     objecttolerance="10"
     gridtolerance="10"
     guidetolerance="10"
     inkscape:pageopacity="0"
     inkscape:pageshadow="2"
     inkscape:window-width="1366"
     inkscape:window-height="705"
     id="namedview23"
     showgrid="false"
     inkscape:zoom="4"
     inkscape:cx="-1.6934191"
     inkscape:cy="9.4662791"
     inkscape:window-x="0"
     inkscape:window-y="30"
     inkscape:window-maximized="1"
     inkscape:current-layer="svg8860" />
  <defs
     id="defs8862">
    <linearGradient
       gradientTransform="matrix(0.89189031,0,0,0.94046961,3.14398,5.346537)"
       gradientUnits="userSpaceOnUse"
       xlink:href="#linearGradient3454-2-5-0-3-8"
       id="linearGradient10270-0"
       y2="8.1721792"
       x2="11.350123"
       y1="0.66696572"
       x1="11.350123" />
    <linearGradient
       id="linearGradient3454-2-5-0-3-8">
      <stop
         offset="0"
         style="stop-color:#ffffff;stop-opacity:1"
         id="stop3456-4-9-38-1-9" />
      <stop
         offset="0.0097359"
         style="stop-color:#ffffff;stop-opacity:0.23529412"
         id="stop3458-39-80-3-5-6" />
      <stop
         offset="0.99001008"
         style="stop-color:#ffffff;stop-opacity:0.15686275"
         id="stop3460-7-0-2-4-4" />
      <stop
         offset="1"
         style="stop-color:#ffffff;stop-opacity:0.39215687"
         id="stop3462-0-9-8-7-8" />
    </linearGradient>
    <linearGradient
       id="linearGradient4346">
      <stop
         offset="0"
         style="stop-color:#ffffff;stop-opacity:1"
         id="stop4348" />
      <stop
         offset="1"
         style="stop-color:#d8d8d8;stop-opacity:1"
         id="stop4350" />
    </linearGradient>
    <linearGradient
       gradientTransform="matrix(0.33333327,0,0,0.32971018,-17.44063,-0.64784268)"
       gradientUnits="userSpaceOnUse"
       xlink:href="#linearGradient4346"
       id="linearGradient8858"
       y2="15.385052"
       x2="62.988873"
       y1="11.645091"
       x1="62.988873" />
    <linearGradient
       gradientTransform="matrix(0.50413225,0,0,0.49333391,93.640247,-24.864023)"
       gradientUnits="userSpaceOnUse"
       xlink:href="#linearGradient2867-449-88-871-390-598-476-591-434-148-57-177-8-3-3-6-4-8-8-8-5-7-8"
       id="linearGradient5954"
       y2="80.030975"
       x2="-162.6788"
       y1="58.56691"
       x1="-162.6788" />
    <linearGradient
       id="linearGradient4632-0-6-4-4-4">
      <stop
         offset="0"
         style="stop-color:#efdfc4;stop-opacity:1"
         id="stop4634-4-4-7-4" />
      <stop
         offset="1"
         style="stop-color:#e7c591;stop-opacity:1"
         id="stop4636-3-1-5-9" />
    </linearGradient>
    <linearGradient
       xlink:href="#linearGradient2867-449-88-871-390-598-476-591-434-148-57-177-8-3-3-6-4-8-8-8-5-7-8"
       id="linearGradient997"
       gradientUnits="userSpaceOnUse"
       gradientTransform="matrix(0.50413225,0,0,0.49333391,-45.105519,-42.186248)"
       x1="45.428802"
       y1="52.770573"
       x2="45.428802"
       y2="113.49406" />
    <linearGradient
       id="linearGradient2867-449-88-871-390-598-476-591-434-148-57-177-8-3-3-6-4-8-8-8-5-7-8">
      <stop
         id="stop3750-1-0-7-6-6-1-3-9-3-9-2"
         style="stop-color:#404648;stop-opacity:1"
         offset="0" />
      <stop
         id="stop3754-1-8-5-2-7-6-7-1-9-1-0"
         style="stop-color:#0c1011;stop-opacity:1"
         offset="1" />
    </linearGradient>
    <linearGradient
       gradientTransform="matrix(0.50413225,0,0,0.49333391,111.53855,-19.855548)"
       gradientUnits="userSpaceOnUse"
       xlink:href="#linearGradient2867-449-88-871-390-598-476-591-434-148-57-177-8-3-3-6-4-8-8-8-5-7-8"
       id="linearGradient5954-3"
       y2="80.030975"
       x2="-162.6788"
       y1="58.56691"
       x1="-162.6788" />
    <linearGradient
       gradientTransform="matrix(0.50413225,0,0,0.49333391,86.047027,-8.8724981)"
       gradientUnits="userSpaceOnUse"
       xlink:href="#linearGradient2867-449-88-871-390-598-476-591-434-148-57-177-8-3-3-6-4-8-8-8-5-7-8"
       id="linearGradient5954-35"
       y2="80.030975"
       x2="-162.6788"
       y1="58.56691"
       x1="-162.6788" />
    <linearGradient
       gradientTransform="matrix(0.89189031,0,0,0.94046961,-4.4492403,21.338062)"
       gradientUnits="userSpaceOnUse"
       xlink:href="#linearGradient3454-2-5-0-3-8"
       id="linearGradient10270-0-9"
       y2="8.1721792"
       x2="11.350123"
       y1="0.66696572"
       x1="11.350123" />
    <linearGradient
       gradientTransform="matrix(0.50413225,0,0,0.49333391,82.077747,-6.8015235)"
       gradientUnits="userSpaceOnUse"
       xlink:href="#linearGradient2867-449-88-871-390-598-476-591-434-148-57-177-8-3-3-6-4-8-8-8-5-7-8"
       id="linearGradient5954-36"
       y2="80.030975"
       x2="-162.6788"
       y1="58.56691"
       x1="-162.6788" />
    <linearGradient
       gradientTransform="matrix(0.89189031,0,0,0.94046961,-8.41852,23.409036)"
       gradientUnits="userSpaceOnUse"
       xlink:href="#linearGradient3454-2-5-0-3-8"
       id="linearGradient10270-0-3"
       y2="8.1721792"
       x2="11.350123"
       y1="0.66696572"
       x1="11.350123" />
  </defs>
  <metadata
     id="metadata8865">
    <rdf:RDF>
      <cc:Work
         rdf:about="">
        <dc:format>image/svg+xml</dc:format>
        <dc:type
           rdf:resource="http://purl.org/dc/dcmitype/StillImage" />
        <dc:title />
      </cc:Work>
    </rdf:RDF>
  </metadata>
  <path
     d="M 15.5,3.9996665 V 2.7263335 C 15.5,2.5878335 15.41182,2.5 15.27332,2.5 H 8.5 V 1.757917 C 8.5,1.619417 8.41182,1.5 8.27332,1.5 h -6.5 C 1.63482,1.5 1.5,1.619417 1.5,1.757917 V 2.5 H 0.773 C 0.6345,2.5 0.5,2.588167 0.5,2.726667 V 4"
     id="rect4170"
     style="color:#000000;display:inline;overflow:visible;visibility:visible;opacity:0.5;vector-effect:none;fill:none;fill-opacity:1;stroke:#7e8087;stroke-width:1;stroke-linecap:square;stroke-linejoin:miter;stroke-miterlimit:4;stroke-dasharray:none;stroke-dashoffset:0;stroke-opacity:1;marker:none;enable-background:accumulate" />
  <path
     d="M 2,2 V 3 H 1 V 7 H 15 V 3 H 8 V 2 Z"
     id="rect4170-0"
     style="color:#000000;display:inline;overflow:visible;visibility:visible;fill:url(#linearGradient8858);fill-opacity:1;fill-rule:nonzero;stroke:none;stroke-width:0.99992168;marker:none;enable-background:accumulate" />
  <path
     d="m 0.5,4.5 h 15 v 10 h -15 z"
     id="rect3086-0"
     style="color:#000000;display:inline;overflow:visible;visibility:visible;opacity:1;vector-effect:none;fill:url(#linearGradient5954);fill-opacity:1;stroke:none;stroke-width:1;stroke-linecap:butt;stroke-linejoin:round;stroke-miterlimit:4;stroke-dasharray:none;stroke-dashoffset:0;stroke-opacity:0.49803922;marker:none;enable-background:accumulate" />
  <path
     d="m 1.5,5.5 h 13 v 8 h -13 z"
     id="rect3086-9"
     style="color:#000000;display:inline;overflow:visible;visibility:visible;opacity:0.5;fill:none;stroke:url(#linearGradient10270-0);stroke-width:1;stroke-linecap:round;stroke-linejoin:miter;stroke-miterlimit:4;stroke-dasharray:none;stroke-dashoffset:0;stroke-opacity:1;marker:none;enable-background:accumulate" />
  <path
     inkscape:connector-curvature="0"
     d="m 0.5,4.5 h 15 v 10.000001 h -15 z"
     id="rect3086-0-5"
     style="color:#000000;display:inline;overflow:visible;visibility:visible;opacity:0.7;vector-effect:none;fill:none;fill-opacity:1;stroke:#000000;stroke-width:1;stroke-linecap:butt;stroke-linejoin:round;stroke-miterlimit:4;stroke-dasharray:none;stroke-dashoffset:0;stroke-opacity:1;marker:none;enable-background:accumulate" />
  <path
     id="rect890-06"
     style="opacity:0.6;fill:#5f5f5f;fill-opacity:1;stroke:none;stroke-width:1.33594513;stroke-miterlimit:4;stroke-dasharray:none;stroke-opacity:1"
     d="m 11.996089,7.994531 h 2 v 2.0000002 h -2 z m -2.0000002,-2 h 2.0000002 v 2 H 9.9960888 Z m -2,2 h 2 v 2.0000002 h -2 z m -2,-2 h 2 v 2 h -2 z m -2,2 h 2 v 2.0000002 h -2 z m -2,-2 h 2 v 2 h -2 z"
     inkscape:connector-curvature="0" />
  <path
     style="color:#000000;display:inline;overflow:visible;visibility:visible;opacity:0.15;fill:#000000;fill-opacity:1;fill-rule:evenodd;stroke:none;stroke-width:0.29999983;marker:none;enable-background:accumulate"
     d="m 7.970703,6.4999998 c -1.435625,0 -2.621094,1.185469 -2.621094,2.621094 v 0.373047 C 5.009753,9.7317928 4.75,10.065818 4.75,10.5 v 2.699219 C 4.75,13.902122 5.345925,14.5 6.048828,14.5 H 9.9492191 C 10.652124,14.5 11.25,13.902126 11.25,13.199219 V 10.5 c 0,-0.434184 -0.261705,-0.7682082 -0.601562,-1.0058592 v -0.373047 c 0,-1.435624 -1.1854699,-2.621094 -2.6210939,-2.621094 z m 0.0293,2.59961 c 0.045,0 0.04883,0.0058 0.04883,0.05078 v 0.04883 h -0.09961 v -0.04883 c 0,-0.045 0.0058,-0.05078 0.05078,-0.05078 z"
     id="rect3174-8-4-5"
     inkscape:connector-curvature="0" />
  <path
     style="color:#000000;display:inline;overflow:visible;visibility:visible;opacity:0.3;fill:#000000;fill-opacity:1;fill-rule:evenodd;stroke:none;stroke-width:0.29999983;marker:none;enable-background:accumulate"
     d="M 7.971875,7.4999998 C 7.074538,7.4999998 6.35,8.2245378 6.35,9.1218748 V 10.2 h -0.3 c -0.1662,0 -0.3,0.1338 -0.3,0.3 v 2.7 c 0,0.1662 0.1338,0.3 0.3,0.3 H 9.9499991 C 10.116198,13.5 10.25,13.3662 10.25,13.2 v -2.7 c 0,-0.1662 -0.133801,-0.3 -0.3000009,-0.3 h -0.3 V 9.1218748 c 0,-0.897336 -0.7245381,-1.621875 -1.621874,-1.621875 z m 0.02812,0.6 c 0.5817011,0 1.050001,0.4683 1.050001,1.05 V 10.2 H 6.949995 V 9.1499998 c 0,-0.5817 0.4683,-1.05 1.05,-1.05 z"
     id="rect3174-8-4"
     inkscape:connector-curvature="0" />
  <path
     style="color:#000000;display:inline;overflow:visible;visibility:visible;fill:#ffffff;fill-opacity:1;fill-rule:evenodd;stroke:none;stroke-width:0.29999983;marker:none;enable-background:accumulate"
     d="m 7.9718752,6.5000001 c -0.8973368,0 -1.6218753,0.724538 -1.6218753,1.6218748 v 1.078125 h -0.3 c -0.1662,0 -0.3,0.1338001 -0.3,0.3000001 v 2.7 c 0,0.1662 0.1338,0.3 0.3,0.3 H 9.9499997 C 10.116199,12.5 10.25,12.3662 10.25,12.2 V 9.5 c 0,-0.1662 -0.133801,-0.3000001 -0.3000003,-0.3000001 h -0.3 V 8.1218749 C 9.6499997,7.2245389 8.9254612,6.5 8.0281252,6.5 Z M 7.9999982,7.1 c 0.5817,0 1.0499999,0.4682999 1.0499999,1.05 v 1.0499999 h -2.1 V 8.15 c 0,-0.5817001 0.4683,-1.05 1.0500001,-1.05 z"
     id="rect3174-8"
     inkscape:connector-curvature="0" />
</svg>
